<svg width="71" height="74" viewBox="0 0 71 74" fill="none" xmlns="http://www.w3.org/2000/svg">
<path d="M33.7515 33.7502C36.1814 36.2833 37.6742 39.6298 37.9665 43.1988C38.2588 46.7678 37.3318 50.3296 35.349 53.2553L34.9319 53.8412L47.4072 66.8467L47.6291 67.1149C47.9542 67.574 48.1106 68.1394 48.0697 68.7085C48.0288 69.2775 47.7935 69.8123 47.4063 70.2158C47.0192 70.6193 46.506 70.8647 45.96 70.9073C45.4141 70.9499 44.8716 70.7869 44.4311 70.448L44.1737 70.2168L31.5801 57.0941C28.5747 59.1879 24.93 60.043 21.3537 59.4934C17.7774 58.9438 14.5247 57.0286 12.227 54.1198C9.92943 51.2109 8.75092 47.516 8.92032 43.7524C9.08973 39.9888 10.595 36.4251 13.1438 33.7532C15.8766 30.9052 19.583 29.3053 23.4476 29.3053C27.3123 29.3053 31.0187 30.9022 33.7515 33.7502ZM38.8399 6.16666C40.6042 6.16747 42.296 6.89831 43.5436 8.19858L51.8624 16.8627L60.1694 25.5331C61.4149 26.8342 62.116 28.5979 62.116 30.4356V60.8958C62.116 62.7358 61.4147 64.5004 60.1665 65.8014C58.9182 67.1024 57.2251 67.8333 55.4598 67.8333H50.9927C50.8797 66.906 50.5394 66.0246 50.0046 65.2742L49.6496 64.8333L48.0906 63.2053L55.4568 63.2083C56.0453 63.2083 56.6096 62.9647 57.0257 62.531C57.4418 62.0973 57.6756 61.5091 57.6756 60.8958V30.8426H45.1145C43.4283 30.8429 41.8049 30.1762 40.5722 28.9772C39.3394 27.7782 38.5892 26.1362 38.473 24.383L38.4582 23.9082V10.7917H21.4478C20.8594 10.7917 20.295 11.0353 19.8789 11.469C19.4628 11.9027 19.2291 12.4909 19.2291 13.1042V26.7356C17.6771 27.1193 16.183 27.7231 14.7886 28.5301L14.7916 13.1042C14.7916 11.2642 15.4928 9.49964 16.7411 8.19861C17.9894 6.89758 19.6825 6.16666 21.4478 6.16666H38.8399ZM16.3772 37.1233C15.4259 38.0857 14.6676 39.2356 14.1466 40.5063C13.6255 41.7769 13.3522 43.1428 13.3423 44.5246C13.3325 45.9063 13.5864 47.2763 14.0892 48.5549C14.5921 49.8334 15.3339 50.9949 16.2715 51.9719C17.209 52.9489 18.3236 53.7218 19.5505 54.2456C20.7773 54.7695 22.0918 55.0338 23.4175 55.0233C24.7433 55.0127 26.0538 54.7275 27.2728 54.1842C28.4918 53.6409 29.5949 52.8504 30.5181 51.8586C32.3803 49.9013 33.4227 47.2549 33.4172 44.4984C33.4117 41.742 32.3586 39.1001 30.4885 37.151C28.6185 35.2019 26.0837 34.1044 23.439 34.0986C20.7943 34.0928 18.2551 35.1793 16.3772 37.1202V37.1233ZM42.8957 14.06V23.9082C42.8957 25.0798 43.73 26.0449 44.8127 26.1991L45.1145 26.2207L54.5545 26.2176L42.8957 14.06Z" fill="white"/>
</svg>
