<svg width="62" height="63" viewBox="0 0 62 63" fill="none" xmlns="http://www.w3.org/2000/svg">
<path d="M2.09206 15.2381L1.93706 11.8125C1.93706 9.72392 2.75358 7.72088 4.20698 6.24403C5.66039 4.76719 7.63163 3.9375 9.68706 3.9375H23.9161C25.9713 3.93795 27.9422 4.76792 29.3953 6.24487L32.6038 9.50513C34.0569 10.9821 36.0278 11.8121 38.0831 11.8125H53.5133C54.5903 11.8124 55.6554 12.0403 56.6408 12.4818C57.6262 12.9233 58.5102 13.5687 59.2365 14.3767C59.9628 15.1847 60.5154 16.1376 60.859 17.1748C61.2026 18.2119 61.3298 19.3104 61.2323 20.4002L58.7639 47.9627C58.589 49.9193 57.7005 51.7388 56.2731 53.0639C54.8457 54.3891 52.9823 55.1242 51.0488 55.125H10.9503C9.01683 55.1242 7.15347 54.3891 5.72603 53.0639C4.29858 51.7388 3.41017 49.9193 3.23519 47.9627L0.766812 20.4002C0.601683 18.5763 1.07059 16.7512 2.09206 15.2421V15.2381ZM8.48581 15.75C7.94752 15.75 7.41513 15.8639 6.92257 16.0845C6.43001 16.3052 5.98809 16.6276 5.62498 17.0314C5.26187 17.4352 4.98553 17.9114 4.81359 18.4298C4.64165 18.9481 4.57787 19.4971 4.62631 20.0419L7.09469 47.6044C7.18169 48.5827 7.62543 49.4926 8.33878 50.1556C9.05214 50.8185 9.9836 51.1866 10.9503 51.1875H51.0488C52.0155 51.1866 52.947 50.8185 53.6603 50.1556C54.3737 49.4926 54.8174 48.5827 54.9044 47.6044L57.3728 20.0419C57.4213 19.4971 57.3575 18.9481 57.1855 18.4298C57.0136 17.9114 56.7373 17.4352 56.3741 17.0314C56.011 16.6276 55.5691 16.3052 55.0766 16.0845C54.584 15.8639 54.0516 15.75 53.5133 15.75H8.48581ZM26.6596 9.02869C26.2994 8.66256 25.8716 8.37221 25.4009 8.17425C24.9301 7.97628 24.4255 7.87459 23.9161 7.875H9.68706C8.67198 7.87481 7.69735 8.27937 6.97273 9.00169C6.2481 9.72401 5.83135 10.7064 5.81206 11.7377L5.83531 12.285C6.66456 11.9779 7.55581 11.8125 8.48581 11.8125H29.3953L26.6596 9.02869Z" fill="white"/>
</svg>
