<svg width="36" height="36" viewBox="0 0 36 36" fill="none" xmlns="http://www.w3.org/2000/svg">
<rect width="36" height="36" rx="8" fill="#E0F3FF"/>
<g clip-path="url(#clip0_1315_2777)">
<path d="M18 27.5C16.199 27.4999 14.4452 27.0236 12.9953 26.1409C11.5455 25.2582 10.4756 24.0153 9.94237 22.5942C11.4586 23.3205 13.1807 23.702 14.9334 23.7C16.0036 23.7 17.034 23.5606 18 23.3035C18.991 23.5669 20.0257 23.7007 21.0667 23.7C22.8194 23.702 24.5415 23.3205 26.0577 22.5942C25.5242 24.0152 24.4544 25.2579 23.0045 26.1406C21.5547 27.0233 19.8011 27.4997 18 27.5ZM27.8962 19.5542C28.8464 18.4707 29.3988 17.1841 29.4874 15.8482C29.5761 14.5123 29.1972 13.1836 28.3961 12.0208C27.5949 10.858 26.4054 9.91043 24.9698 9.29124C23.5341 8.67204 21.9129 8.40745 20.3 8.52908C21.5509 9.1891 22.6076 10.0716 23.3928 11.1121C24.178 12.1526 24.672 13.3248 24.8387 14.5432C26.5384 15.8652 27.6208 17.6391 27.8962 19.5542ZM15.7 8.52782C14.0872 8.40618 12.466 8.67078 11.0303 9.28997C9.59463 9.90917 8.40514 10.8568 7.60401 12.0195C6.80288 13.1823 6.424 14.511 6.51264 15.847C6.60129 17.1829 7.15372 18.4694 8.1039 19.5529C8.37998 17.6387 9.4623 15.8658 11.1614 14.5445C11.3276 13.3257 11.8214 12.1529 12.6067 11.1119C13.3919 10.071 14.4488 9.1881 15.7 8.52782ZM9.57437 20.8462C11.2866 22.0141 13.4891 22.5742 15.7 22.4042C14.4593 21.749 13.4098 20.8748 12.6269 19.8446C11.844 18.8143 11.3471 17.6536 11.1721 16.4457C10.0509 17.7203 9.48846 19.2723 9.57744 20.8462H9.57437ZM26.4334 20.5333C26.4334 19.007 25.8384 17.5946 24.8295 16.4457C24.6547 17.6538 24.1579 18.8148 23.375 19.8453C22.5921 20.8758 21.5425 21.7501 20.3016 22.4054C22.512 22.5752 24.7138 22.015 26.4257 20.8474C26.4303 20.7423 26.4334 20.6384 26.4334 20.5333ZM18 8.97495C19.1809 9.35705 20.2426 9.95368 21.1066 10.7207C21.9705 11.4876 22.6146 12.4053 22.991 13.4057C21.4748 12.6794 19.7527 12.2979 18 12.2999C16.2473 12.2979 14.5252 12.6794 13.009 13.4057C13.3855 12.4053 14.0296 11.4876 14.8935 10.7207C15.7575 9.95368 16.8192 9.35705 18 8.97495ZM18 13.5666C15.9653 13.5666 14.0992 14.1619 12.641 15.1537C12.5619 16.6083 13.0363 18.0467 13.9974 19.2671C14.9586 20.4875 16.3583 21.4286 18 21.9583C19.6418 21.4286 21.0415 20.4875 22.0027 19.2671C22.9638 18.0467 23.4381 16.6083 23.359 15.1537C21.8509 14.1254 19.9556 13.5641 18 13.5666Z" fill="#009DFB"/>
</g>
<defs>
<clipPath id="clip0_1315_2777">
<rect width="23" height="19" fill="white" transform="translate(6.5 8.5)"/>
</clipPath>
</defs>
</svg>
