<svg width="36" height="36" viewBox="0 0 36 36" fill="none" xmlns="http://www.w3.org/2000/svg">
<rect width="36" height="36" rx="8" fill="#E0F3FF"/>
<path d="M11.4313 19.5529L16.905 16.8127V15.1948H16.2878C15.9814 15.1948 15.6898 15.132 15.4241 15.0176V15.8849L9.94969 18.6243V20.8015H11.4299V19.5514L11.4313 19.5529ZM26.0481 20.8037V18.6258L20.5737 15.8849V15.0191C20.3007 15.1359 20.0072 15.1959 19.7107 15.1955H19.0942V16.8135L24.5672 19.5544V20.8045H26.0473L26.0481 20.8037ZM18.7405 20.8037V15.1963H17.2603V20.8037H18.7405ZM27.0198 21.5514H23.5969C23.2043 21.5514 22.8279 21.7089 22.5503 21.9894C22.2727 22.2698 22.1167 22.6501 22.1167 23.0467V26.5047C22.1167 26.9013 22.2727 27.2816 22.5503 27.562C22.8279 27.8425 23.2043 28 23.5969 28H27.0198C27.4124 28 27.7889 27.8425 28.0665 27.562C28.3441 27.2816 28.5 26.9013 28.5 26.5047V23.0467C28.5 22.6501 28.3441 22.2698 28.0665 21.9894C27.7889 21.7089 27.4124 21.5514 27.0198 21.5514ZM12.4031 21.5514H8.98018C8.58761 21.5514 8.21112 21.7089 7.93353 21.9894C7.65595 22.2698 7.5 22.6501 7.5 23.0467V26.5047C7.5 26.9013 7.65595 27.2816 7.93353 27.562C8.21112 27.8425 8.58761 28 8.98018 28H12.4031C12.7957 28 13.1721 27.8425 13.4497 27.562C13.7273 27.2816 13.8833 26.9013 13.8833 26.5047V23.0467C13.8833 22.6501 13.7273 22.2698 13.4497 21.9894C13.1721 21.7089 12.7957 21.5514 12.4031 21.5514ZM16.2885 14.4486H19.7115C20.104 14.4486 20.4805 14.2911 20.7581 14.0106C21.0357 13.7302 21.1916 13.3499 21.1916 12.9533V9.49533C21.1916 9.09874 21.0357 8.7184 20.7581 8.43797C20.4805 8.15754 20.104 8 19.7115 8H16.2885C15.896 8 15.5195 8.15754 15.2419 8.43797C14.9643 8.7184 14.8084 9.09874 14.8084 9.49533V12.9533C14.8084 13.3499 14.9643 13.7302 15.2419 14.0106C15.5195 14.2911 15.896 14.4486 16.2885 14.4486ZM19.7115 21.5514H16.2885C15.896 21.5514 15.5195 21.7089 15.2419 21.9894C14.9643 22.2698 14.8084 22.6501 14.8084 23.0467V26.5047C14.8084 26.9013 14.9643 27.2816 15.2419 27.562C15.5195 27.8425 15.896 28 16.2885 28H19.7115C20.104 28 20.4805 27.8425 20.7581 27.562C21.0357 27.2816 21.1916 26.9013 21.1916 26.5047V23.0467C21.1916 22.6501 21.0357 22.2698 20.7581 21.9894C20.4805 21.7089 20.104 21.5514 19.7115 21.5514Z" fill="#009DFB"/>
</svg>
