<svg width="36" height="36" viewBox="0 0 36 36" fill="none" xmlns="http://www.w3.org/2000/svg">
<rect width="36" height="36" rx="8" fill="#E0F3FF"/>
<path d="M9.71739 19.2778C9.62704 19.2089 9.53859 19.1377 9.45214 19.064C9.51389 19.163 9.60439 19.2397 9.71739 19.2778ZM10.3849 9.39025H25.5619V18.2692C26.0939 17.9742 26.3796 17.7732 26.5754 17.6445V8.882C26.5753 8.74749 26.5217 8.61853 26.4266 8.52347C26.3314 8.4284 26.2024 8.375 26.0679 8.375H9.87739C9.59664 8.375 9.36914 8.6025 9.36914 8.882V17.667C9.56189 17.7885 9.83864 17.9922 10.3849 18.297V9.39025Z" fill="#009DFB"/>
<path d="M27.4482 17.4945C27.3175 17.3903 27.1365 17.3908 26.8492 17.4945C26.7655 17.525 26.6807 17.5758 26.5755 17.6445C26.3797 17.7733 26.0942 17.9743 25.562 18.2693C25.3977 18.3593 25.2187 18.4563 25.0017 18.565C24.9337 18.599 24.8682 18.6268 24.801 18.6593C23.5777 19.2353 22.4775 19.4203 22.4775 19.4203H18.8337C18.7647 19.4203 18.5437 19.4628 18.4377 19.6225C18.3332 19.782 18.3507 20.045 18.3507 20.045V20.489C18.4822 20.5823 18.6212 20.6658 18.7745 20.7185C19.873 21.093 20.6162 20.7665 20.9405 20.3115C21.3197 19.778 21.5127 19.4793 21.9292 19.6353C22.3457 19.7913 21.9292 20.8053 21.4092 21.326C20.888 21.847 20.2632 22.2633 19.3792 22.2633C19.0077 22.2633 18.6477 22.2075 18.3507 22.1443V25.927C18.3507 26.9945 19.4852 27.565 20.2652 27.565C21.045 27.565 22.607 27.123 23.362 25.2493C24.1162 23.376 23.3107 20.904 23.3107 20.904C23.3107 20.904 24.5327 20.3563 25.8085 19.5505C27.083 18.7443 27.4222 17.989 27.4482 17.883C27.4732 17.7763 27.5772 17.599 27.4482 17.4945Z" fill="#009DFB"/>
<path d="M21.4083 21.3258C21.9283 20.805 22.3448 19.791 21.9283 19.635C21.5118 19.479 21.3188 19.7778 20.9396 20.3113C20.6153 20.7663 19.8721 21.0928 18.7736 20.7183C18.6203 20.6655 18.4813 20.582 18.3498 20.4888C17.8073 20.103 17.4381 19.479 17.1663 19.479H13.5226C13.5226 19.479 12.5118 19.308 11.3516 18.7875C11.2351 18.735 11.1178 18.683 10.9988 18.6233C10.7914 18.5193 10.5864 18.4104 10.3841 18.2968C9.83781 17.992 9.56106 17.7885 9.36831 17.6668C9.28806 17.616 9.22006 17.578 9.15056 17.553C8.86456 17.449 8.68231 17.449 8.55206 17.553C8.42256 17.6575 8.52606 17.835 8.55206 17.9413C8.57206 18.0225 8.78031 18.4873 9.45106 19.0638C9.68501 19.2625 9.93252 19.4447 10.1918 19.609C11.4663 20.4158 12.6896 20.962 12.6896 20.962C12.6896 20.962 11.8828 23.4335 12.6383 25.3073C13.3928 27.1808 14.9541 27.6248 15.7346 27.6248C16.5153 27.6248 17.6498 27.0505 17.6498 25.9838V21.951C17.6498 21.951 17.9378 22.056 18.3496 22.1438C18.6466 22.207 19.0066 22.2628 19.3781 22.2628C20.2623 22.263 20.8871 21.8468 21.4083 21.3258ZM20.7538 14.0953C20.1533 14.0953 19.5774 14.3339 19.1527 14.7585C18.7281 15.1831 18.4894 15.759 18.4893 16.3595C18.4893 17.6093 19.5031 18.6235 20.7538 18.6235C22.0033 18.6235 23.0168 17.6093 23.0168 16.3595C23.0168 15.1095 22.0033 14.0953 20.7538 14.0953Z" fill="#009DFB"/>
<path d="M15.3863 14.0953C14.1363 14.0953 13.123 15.1095 13.123 16.3595C13.123 17.6093 14.136 18.6235 15.3863 18.6235C16.637 18.6235 17.6508 17.6093 17.6508 16.3595C17.6508 15.1095 16.637 14.0953 15.3863 14.0953Z" fill="#009DFB"/>
</svg>
