<svg width="36" height="36" viewBox="0 0 36 36" fill="none" xmlns="http://www.w3.org/2000/svg">
<rect width="36" height="36" rx="8" fill="#E0F3FF"/>
<path d="M29 12.9375C29 14.799 27.7668 16.3125 26.25 16.3125H19.0312V19.6875H21.0121C21.9316 19.6875 22.3914 21.0533 21.7426 21.8496L18.7305 25.541C18.3266 26.0367 17.6734 26.0367 17.2738 25.541L14.2617 21.8496C13.6129 21.0533 14.0727 19.6875 14.9922 19.6875H16.9688V16.3125H9.75C8.2332 16.3125 7 14.799 7 12.9375V9.5625C7 7.70098 8.2332 6.1875 9.75 6.1875H26.25C27.7668 6.1875 29 7.70098 29 9.5625V12.9375ZM26.25 26.4375V23.0625H22.6965L22.7137 23.0414C23.5043 22.0711 23.5902 20.7369 23.1863 19.6875H26.25C27.7668 19.6875 29 21.201 29 23.0625V26.4375C29 28.299 27.7668 29.8125 26.25 29.8125H9.75C8.2332 29.8125 7 28.299 7 26.4375V23.0625C7 21.201 8.2332 19.6875 9.75 19.6875H12.8137C12.4098 20.7369 12.4957 22.0711 13.2863 23.0414L13.3035 23.0625H9.75V26.4375H16.0535L16.2984 26.7381C17.2395 27.893 18.7605 27.893 19.7016 26.7381L19.9465 26.4375H26.25Z" fill="#009DFB"/>
</svg>
