<svg width="36" height="36" viewBox="0 0 36 36" fill="none" xmlns="http://www.w3.org/2000/svg">
<rect width="36" height="36" rx="8" fill="#E0F3FF"/>
<path d="M8.9375 9.5625C8.9375 8.66739 9.31942 7.80895 9.99924 7.17601C10.6791 6.54308 11.6011 6.1875 12.5625 6.1875C13.5239 6.1875 14.4459 6.54308 15.1258 7.17601C15.8056 7.80895 16.1875 8.66739 16.1875 9.5625C16.1875 10.4576 15.8056 11.3161 15.1258 11.949C14.4459 12.5819 13.5239 12.9375 12.5625 12.9375C11.6011 12.9375 10.6791 12.5819 9.99924 11.949C9.31942 11.3161 8.9375 10.4576 8.9375 9.5625ZM21.2244 12.2355L21.3006 12.2895C22.0696 12.8202 23.0329 13.0462 23.9802 12.9181C24.9275 12.79 25.782 12.3183 26.3571 11.6058C26.9322 10.8933 27.1813 9.99796 27.0499 9.11514C26.9186 8.23232 26.4176 7.4337 25.6561 6.89357C24.8947 6.35344 23.9347 6.11564 22.9856 6.23208C22.0366 6.34852 21.1755 6.80974 20.5903 7.51508C20.0052 8.22043 19.7434 9.11263 19.8622 9.99699C19.981 10.8813 20.4707 11.6861 21.2244 12.2355ZM14.8608 14.625C15.0884 14.2237 15.4007 13.8692 15.7789 13.5828C16.1571 13.2964 16.5934 13.084 17.0618 12.9582C17.5302 12.8324 18.0211 12.7959 18.505 12.8509C18.9889 12.9058 19.456 13.0511 19.8782 13.2779C20.3004 13.5048 20.6691 13.8087 20.9623 14.1713C21.2555 14.5339 21.4672 14.9478 21.5845 15.3884C21.7019 15.8289 21.7227 16.2869 21.6455 16.7351C21.5684 17.1832 21.395 17.6123 21.1356 17.9966C20.6367 18.736 19.8494 19.2665 18.9391 19.4768C18.0289 19.687 17.0665 19.5606 16.2542 19.1242C15.442 18.6877 14.843 17.9752 14.5831 17.1362C14.3233 16.2972 14.4228 15.3971 14.8608 14.625ZM8.03125 14.625H12.8706C12.5485 15.4815 12.4785 16.4027 12.6678 17.2929C12.8571 18.1831 13.2989 19.0099 13.9473 19.6875H13.4688C12.5343 19.6874 11.6226 19.9561 10.8585 20.457C10.0945 20.9578 9.51529 21.6663 9.20031 22.4854C8.59192 22.2578 8.02227 21.9492 7.50925 21.5691C6.14625 20.5481 5.3125 19.0395 5.3125 17.1562C5.3125 16.4849 5.59894 15.8411 6.1088 15.3664C6.61867 14.8917 7.31019 14.625 8.03125 14.625ZM22.5312 19.6875C23.4655 19.6875 24.3768 19.9563 25.1406 20.4572C25.9044 20.958 26.4832 21.6664 26.7979 22.4854C27.4141 22.2508 27.9851 21.9454 28.4907 21.5691C29.8538 20.5481 30.6875 19.0395 30.6875 17.1562C30.6875 16.4849 30.4011 15.8411 29.8912 15.3664C29.3813 14.8917 28.6898 14.625 27.9688 14.625H23.1294C23.3288 15.1532 23.4375 15.7219 23.4375 16.3125C23.4392 17.5581 22.9459 18.7602 22.0527 19.6875H22.5312ZM25.0452 22.941C25.1775 23.238 25.25 23.5654 25.25 23.9062C25.25 25.7895 24.4181 27.2981 23.0532 28.3191C21.7102 29.3231 19.9086 29.8125 18 29.8125C16.0914 29.8125 14.2898 29.3231 12.9467 28.3191C11.5837 27.2981 10.75 25.7895 10.75 23.9062C10.749 23.5736 10.8187 23.244 10.955 22.9365C11.0913 22.629 11.2915 22.3496 11.5442 22.1144C11.7968 21.8792 12.0969 21.6928 12.4272 21.5659C12.7575 21.439 13.1115 21.3741 13.4688 21.375H22.5312C23.0697 21.3749 23.5962 21.5237 24.0437 21.8025C24.4913 22.0813 24.8398 22.4775 25.0452 22.941Z" fill="#009DFB"/>
</svg>
