<svg width="56" height="56" viewBox="0 0 56 56" fill="none" xmlns="http://www.w3.org/2000/svg">
<rect width="56" height="56" rx="8" fill="#009DFB"/>
<path fill-rule="evenodd" clip-rule="evenodd" d="M35.9998 17.3333V21.3333H39.9998C40.3535 21.3333 40.6926 21.4738 40.9426 21.7239C41.1927 21.9739 41.3332 22.313 41.3332 22.6667V36C41.3332 37.0609 40.9117 38.0783 40.1616 38.8284C39.4115 39.5786 38.394 40 37.3332 40H18.6665C17.6056 40 16.5882 39.5786 15.8381 38.8284C15.0879 38.0783 14.6665 37.0609 14.6665 36V17.3333C14.6665 16.9797 14.807 16.6406 15.057 16.3905C15.3071 16.1405 15.6462 16 15.9998 16H34.6665C35.0201 16 35.3593 16.1405 35.6093 16.3905C35.8594 16.6406 35.9998 16.9797 35.9998 17.3333ZM38.6665 36C38.6665 36.3536 38.526 36.6928 38.276 36.9428C38.0259 37.1929 37.6868 37.3333 37.3332 37.3333C36.9795 37.3333 36.6404 37.1929 36.3904 36.9428C36.1403 36.6928 35.9998 36.3536 35.9998 36V24H38.6665V36ZM19.9998 22.6667C19.9998 22.313 20.1403 21.9739 20.3904 21.7239C20.6404 21.4738 20.9795 21.3333 21.3332 21.3333H29.3332C29.6868 21.3333 30.0259 21.4738 30.276 21.7239C30.526 21.9739 30.6665 22.313 30.6665 22.6667C30.6665 23.0203 30.526 23.3594 30.276 23.6095C30.0259 23.8595 29.6868 24 29.3332 24H21.3332C20.9795 24 20.6404 23.8595 20.3904 23.6095C20.1403 23.3594 19.9998 23.0203 19.9998 22.6667ZM22.6665 28C22.6665 27.6464 22.807 27.3072 23.057 27.0572C23.3071 26.8071 23.6462 26.6667 23.9998 26.6667H29.3332C29.6868 26.6667 30.0259 26.8071 30.276 27.0572C30.526 27.3072 30.6665 27.6464 30.6665 28C30.6665 28.3536 30.526 28.6928 30.276 28.9428C30.0259 29.1929 29.6868 29.3333 29.3332 29.3333H23.9998C23.6462 29.3333 23.3071 29.1929 23.057 28.9428C22.807 28.6928 22.6665 28.3536 22.6665 28Z" fill="white"/>
</svg>
