<svg width="56" height="56" viewBox="0 0 56 56" fill="none" xmlns="http://www.w3.org/2000/svg">
<rect width="56" height="56" rx="8" fill="#E0F3FF"/>
<path opacity="0.2" d="M35 33V37H27V33H35Z" fill="#009DFB"/>
<path d="M15 33V19C15 18.4696 15.2107 17.9609 15.5858 17.5858C15.9609 17.2107 16.4696 17 17 17H39C39.5304 17 40.0391 17.2107 40.4142 17.5858C40.7893 17.9609 41 18.4696 41 19V33C41 33.2652 40.8946 33.5196 40.7071 33.7071C40.5196 33.8946 40.2652 34 40 34C39.7348 34 39.4804 33.8946 39.2929 33.7071C39.1054 33.5196 39 33.2652 39 33V19H17V33C17 33.2652 16.8946 33.5196 16.7071 33.7071C16.5196 33.8946 16.2652 34 16 34C15.7348 34 15.4804 33.8946 15.2929 33.7071C15.1054 33.5196 15 33.2652 15 33ZM43 37C43 37.2652 42.8946 37.5196 42.7071 37.7071C42.5196 37.8946 42.2652 38 42 38H14C13.7348 38 13.4804 37.8946 13.2929 37.7071C13.1054 37.5196 13 37.2652 13 37C13 36.7348 13.1054 36.4804 13.2929 36.2929C13.4804 36.1054 13.7348 36 14 36H26V33C26 32.7348 26.1054 32.4804 26.2929 32.2929C26.4804 32.1054 26.7348 32 27 32H35C35.2652 32 35.5196 32.1054 35.7071 32.2929C35.8946 32.4804 36 32.7348 36 33V36H42C42.2652 36 42.5196 36.1054 42.7071 36.2929C42.8946 36.4804 43 36.7348 43 37ZM28 36H34V34H28V36Z" fill="#009DFB"/>
</svg>
