<svg width="37" height="36" viewBox="0 0 37 36" fill="none" xmlns="http://www.w3.org/2000/svg">
<rect x="0.5" width="36" height="36" rx="8" fill="#E0F3FF"/>
<path d="M25.5909 16.2861L20.6818 14V8.28609M25.5909 16.2861L30.5 14V8.28609M25.5909 16.2861V10.5713M20.6818 8.28609L25.5909 6L30.5 8.28609M20.6818 8.28609L25.5909 10.5713M30.5 8.28609L25.5909 10.5713M13.0455 20.8574C11.8884 20.8574 10.7786 20.3757 9.95965 19.5183C9.14147 18.6609 8.68182 17.4982 8.68182 16.2861C8.68182 15.0731 9.14147 13.9104 9.95965 13.0539C10.7786 12.1965 11.8884 11.7148 13.0455 11.7148C14.2025 11.7148 15.3124 12.1965 16.1313 13.0539C16.9494 13.9104 17.4091 15.0731 17.4091 16.2861C17.4091 17.4982 16.9494 18.6609 16.1313 19.5183C15.3124 20.3757 14.2025 20.8574 13.0455 20.8574ZM13.0455 20.8574C9.22727 20.8574 6.5 23.1426 6.5 27.7139V30H19.5909V27.7139C19.5909 23.1426 16.8636 20.8574 13.0455 20.8574Z" stroke="#009DFB" stroke-width="2"/>
</svg>
