<svg width="37" height="36" viewBox="0 0 37 36" fill="none" xmlns="http://www.w3.org/2000/svg">
<rect x="0.5" width="36" height="36" rx="8" fill="#E0F3FF"/>
<path d="M18.5 22.8C19.86 22.8 21.37 22.5304 23.03 21.9904C24.69 21.4504 27.18 20.5002 30.5 19.14V18.6904C30.5 17.6704 30.09 16.8501 29.27 16.2303C28.45 15.6099 27.55 15.4398 26.57 15.72C26.23 15.8202 25.8847 15.9403 25.5347 16.08C25.184 16.2198 24.7193 16.3998 24.14 16.62C22.92 17.1402 21.89 17.5002 21.05 17.7C20.21 17.8998 19.36 18 18.5 18C17.6 18 16.73 17.8955 15.89 17.6859C15.05 17.4762 13.99 17.1106 12.71 16.5903C12.23 16.3899 11.8153 16.2254 11.4653 16.0955C11.116 15.9664 10.7807 15.8506 10.46 15.7503C9.48 15.4299 8.57532 15.5802 7.74532 16.2C6.91599 16.8198 6.50067 17.6499 6.5 18.6904V19.08C9.12 20.28 11.42 21.1998 13.4 21.84C15.38 22.4802 17.08 22.8 18.5 22.8ZM18.5 30C21.26 30 23.6854 29.2447 25.7754 27.7341C27.866 26.2242 29.2807 24.2894 30.02 21.9303C27.4 23.0499 25.2 23.8751 23.42 24.4059C21.64 24.936 20 25.2007 18.5 25.2C16.98 25.2 15.2447 24.9148 13.2947 24.3445C11.344 23.7741 9.21934 22.9595 6.92 21.9C7.6 24.36 8.96999 26.3252 11.03 27.7955C13.09 29.2659 15.58 30.0007 18.5 30ZM18.5 15.6C17.18 15.6 16.05 15.1299 15.11 14.1904C14.17 13.2501 13.7 12.12 13.7 10.8C13.7 9.47999 14.17 8.34987 15.11 7.41034C16.05 6.47011 17.18 6 18.5 6C19.82 6 20.95 6.47011 21.89 7.41034C22.83 8.34987 23.3 9.47999 23.3 10.8C23.3 12.12 22.83 13.2501 21.89 14.1904C20.95 15.1299 19.82 15.6 18.5 15.6Z" fill="#009DFB"/>
</svg>
