<svg width="37" height="36" viewBox="0 0 37 36" fill="none" xmlns="http://www.w3.org/2000/svg">
<rect x="0.5" width="36" height="36" rx="8" fill="#E0F3FF"/>
<path d="M26.9 8.39956H24.5V7.19978C24.5 6.88146 24.3736 6.57602 24.1488 6.35092C23.9232 6.12658 23.6184 6 23.3 6C22.9816 6 22.6768 6.12658 22.4512 6.35092C22.2264 6.57602 22.1 6.88146 22.1 7.19978V8.39956H14.9V7.19978C14.9 6.88146 14.7736 6.57602 14.5488 6.35092C14.3232 6.12658 14.0184 6 13.7 6C13.3816 6 13.0768 6.12658 12.8512 6.35092C12.6264 6.57602 12.5 6.88146 12.5 7.19978V8.39956H10.1C9.1456 8.39956 8.22959 8.77927 7.55439 9.45457C6.87919 10.1291 6.5 11.0454 6.5 11.9996V26.3999C6.5 27.3549 6.87919 28.2704 7.55439 28.9457C8.22959 29.621 9.1456 30 10.1 30H26.9C27.8544 30 28.7704 29.621 29.4456 28.9457C30.1208 28.2704 30.5 27.3549 30.5 26.3999V11.9996C30.5 11.0454 30.1208 10.1291 29.4456 9.45457C28.7704 8.77927 27.8544 8.39956 26.9 8.39956ZM28.1 26.3999C28.1 26.7182 27.9736 27.0237 27.7488 27.2488C27.5232 27.4739 27.2184 27.6004 26.9 27.6004H10.1C9.7816 27.6004 9.47682 27.4739 9.25122 27.2488C9.02642 27.0237 8.9 26.7182 8.9 26.3999V18H28.1V26.3999ZM28.1 15.5997H8.9V11.9996C8.9 11.6813 9.02642 11.3766 9.25122 11.1515C9.47682 10.9264 9.7816 10.7999 10.1 10.7999H12.5V11.9996C12.5 12.318 12.6264 12.6234 12.8512 12.8485C13.0768 13.0736 13.3816 13.2001 13.7 13.2001C14.0184 13.2001 14.3232 13.0736 14.5488 12.8485C14.7736 12.6234 14.9 12.318 14.9 11.9996V10.7999H22.1V11.9996C22.1 12.318 22.2264 12.6234 22.4512 12.8485C22.6768 13.0736 22.9816 13.2001 23.3 13.2001C23.6184 13.2001 23.9232 13.0736 24.1488 12.8485C24.3736 12.6234 24.5 12.318 24.5 11.9996V10.7999H26.9C27.2184 10.7999 27.5232 10.9264 27.7488 11.1515C27.9736 11.3766 28.1 11.6813 28.1 11.9996V15.5997Z" fill="#009DFB"/>
</svg>
