<svg width="37" height="36" viewBox="0 0 37 36" fill="none" xmlns="http://www.w3.org/2000/svg">
<rect x="0.5" width="36" height="36" rx="8" fill="#E0F3FF"/>
<path fill-rule="evenodd" clip-rule="evenodd" d="M25.9047 22.9269C26.1967 22.7956 26.5319 22.7654 26.8471 22.8414C27.1623 22.9183 27.4359 23.0954 27.6151 23.3415L27.6927 23.4633L30.3591 28.2637C30.4543 28.4347 30.5023 28.6239 30.4999 28.8157C30.4975 29.0066 30.4439 29.1949 30.3439 29.3642C30.2439 29.5327 30.1007 29.6778 29.9263 29.7866C29.7511 29.8963 29.5495 29.9654 29.3391 29.9905L29.1671 30H7.83377C7.62105 30 7.41145 29.9542 7.22233 29.867C7.03329 29.7789 6.87034 29.6519 6.74698 29.4955C6.6237 29.34 6.54362 29.1595 6.51346 28.9703C6.4833 28.7803 6.50402 28.5876 6.57378 28.4062L6.64042 28.2628L9.30713 23.4625C9.45657 23.1843 9.71936 22.9692 10.0409 22.8612C10.3624 22.7524 10.7178 22.7602 11.0332 22.882C11.3486 23.0038 11.5996 23.231 11.7341 23.5152C11.8686 23.7994 11.8761 24.119 11.7551 24.4084L11.6924 24.5362L9.99112 27.6003H27.0095L25.3087 24.5362C25.1503 24.252 25.1247 23.9229 25.2359 23.6206C25.3479 23.3191 25.5887 23.0694 25.9047 22.9269ZM18.5008 6C20.976 6 23.3495 6.88456 25.0999 8.4602C26.8503 10.0358 27.8335 12.1721 27.8335 14.4C27.8335 17.2584 26.1151 19.5804 24.3367 21.2277C23.3535 22.1261 22.2735 22.9338 21.1128 23.6378L20.6152 23.9333L20.1728 24.1838C20.1032 24.2209 20.0368 24.2555 19.9736 24.2918L19.6312 24.4697C18.9272 24.8291 18.0736 24.8291 17.3696 24.4697L17.0272 24.2909L16.6136 24.0637C16.5376 24.0205 16.4616 23.9765 16.3856 23.9333L15.8888 23.6378C14.7272 22.9338 13.6472 22.1261 12.6648 21.2277C10.8858 19.5804 9.16713 17.2584 9.16713 14.4C9.16713 12.1721 10.1504 10.0358 11.9008 8.4602C13.6512 6.88456 16.0248 6 18.5008 6ZM18.5008 8.39974C16.732 8.39974 15.0368 9.03207 13.7864 10.1568C12.536 11.2824 11.8338 12.8088 11.8338 14.4C11.8338 16.3635 13.0208 18.1136 14.5768 19.5553C15.512 20.4062 16.5464 21.1647 17.6616 21.8169L18.1152 22.0778C18.2552 22.1555 18.3848 22.2255 18.5008 22.2868L18.8872 22.0778L19.3392 21.8169C20.4544 21.1647 21.4888 20.4062 22.4247 19.5553C23.9807 18.1153 25.1671 16.3635 25.1671 14.4C25.1671 12.8088 24.4647 11.2824 23.2143 10.1568C21.9639 9.03207 20.2688 8.39974 18.5008 8.39974ZM18.5008 10.7995C19.5616 10.7995 20.5784 11.1796 21.3288 11.8542C22.0792 12.5297 22.5007 13.4454 22.5007 14.4C22.5007 15.3545 22.0792 16.2702 21.3288 16.9457C20.5784 17.6203 19.5616 17.9996 18.5008 17.9996C17.4392 17.9996 16.4224 17.6203 15.672 16.9457C14.9216 16.2702 14.5008 15.3545 14.5008 14.4C14.5008 13.4454 14.9216 12.5297 15.672 11.8542C16.4224 11.1796 17.4392 10.7995 18.5008 10.7995ZM18.5008 13.2001C18.1472 13.2001 17.808 13.3262 17.5576 13.5517C17.3072 13.7763 17.1672 14.0821 17.1672 14.4C17.1672 14.7179 17.3072 15.0236 17.5576 15.2482C17.808 15.4737 18.1472 15.5998 18.5008 15.5998C18.8544 15.5998 19.1928 15.4737 19.4432 15.2482C19.6936 15.0236 19.8336 14.7179 19.8336 14.4C19.8336 14.0821 19.6936 13.7763 19.4432 13.5517C19.1928 13.3262 18.8544 13.2001 18.5008 13.2001Z" fill="#009DFB"/>
</svg>
