<svg width="37" height="36" viewBox="0 0 37 36" fill="none" xmlns="http://www.w3.org/2000/svg">
<rect x="0.5" width="36" height="36" rx="8" fill="#E0F3FF"/>
<path d="M28.2995 9.74969C25.0995 7.94963 25.5005 6 25.5005 6H6.5V24.7493C6.5 27.5999 10.7005 30 14.5 30H30.5V10.5002C30.5 10.5002 28.9 10.2002 28.2995 9.74969ZM16.5 15.4499C14.7005 14.9994 11.8995 14.2499 11.8995 12.6003C12.1 11.4002 14.5 10.5002 14.5 10.2002V9.00012H16.5V10.0497C18.5 10.2002 20.1 10.6497 20.2995 10.6497L19.7 12.0002C19.7 12.0002 18.2995 11.5498 16.6995 11.5498C15.3 11.5498 14.5 12.0002 14.3005 12.7498C14.3005 13.2003 15.3 13.6498 16.9 14.0994C19.8995 14.8499 20.7005 15.7499 20.7005 16.95C20.7005 17.9995 20.5 19.3501 16.5 19.6501V20.9997H14.5V19.7996C14.5 19.6501 11.7 19.05 11.4995 19.05L12.5 17.6995C12.5 17.6995 14.7005 18.45 16.5 18.2995C18.2995 18.15 19.1005 17.3995 19.1005 16.7995C19.3 16.3499 18.2995 15.8995 16.5 15.4499ZM28.5 28.4999H14.5C12.5 28.4999 10.9 27.5999 10.5 26.5494C10.2995 26.0999 10.5 25.4998 11.3 25.4998H24.5V10.0497C26.5 10.9497 28.5 11.7002 28.5 12.0002V28.4999Z" fill="#009DFB"/>
</svg>
