<svg width="37" height="36" viewBox="0 0 37 36" fill="none" xmlns="http://www.w3.org/2000/svg">
<rect x="0.5" width="36" height="36" rx="8" fill="#E0F3FF"/>
<path d="M10.1914 6C8.16151 6 6.5 7.66154 6.5 9.69231V26.3076C6.5 28.3384 8.16151 30 10.1914 30H21.1793L19.3336 28.1538H10.1914C9.17645 28.1538 8.34569 27.323 8.34569 26.3076V9.69231C8.34569 8.67692 9.17645 7.84615 10.1914 7.84615H16.9406C17.5865 8.03077 17.5748 8.86153 17.5748 9.69231V12.4615C17.5748 13.0154 17.9438 13.3846 18.4977 13.3846H21.2662C22.189 13.3846 23.1119 13.3846 23.1119 14.3077V23.3658L23.2857 23.5384L24.9582 21.0572V13.3846C24.9582 12.3692 24.0464 11.4351 22.477 9.86492C22.2001 9.6803 22.0049 9.41538 21.7279 9.23076C21.5431 8.95384 21.2772 8.75723 21.093 8.48031C19.5249 6.912 18.5897 6 17.5748 6H10.1914ZM28.7651 18.9231C28.6003 18.9681 28.4564 19.0706 28.3604 19.212L23.488 26.3935L21.2662 24.0859C20.9893 23.8089 20.6151 23.8089 20.4303 24.0859L19.5943 24.923C19.3174 25.1999 19.3174 25.5747 19.5943 25.7593L23.0256 29.1637C23.2098 29.3483 23.4705 29.5384 23.7468 29.5384C24.0237 29.5384 24.3117 29.3538 24.4965 29.0769L30.4084 20.3944C30.5932 20.3021 30.4843 19.8572 30.2074 19.6736L29.1976 19.0089C29.136 18.9647 29.0653 18.9341 28.9907 18.9193C28.9162 18.9045 28.839 18.9058 28.7651 18.9231Z" fill="#009DFB"/>
</svg>
