<svg width="37" height="36" viewBox="0 0 37 36" fill="none" xmlns="http://www.w3.org/2000/svg">
<rect x="0.5" width="36" height="36" rx="8" fill="#E0F3FF"/>
<path d="M23.5 26H28.5V24C28.5 22.3431 27.1569 21 25.5 21C24.5444 21 23.6931 21.4468 23.1438 22.1429M23.5 26H13.5M23.5 26V24C23.5 23.3438 23.3736 22.717 23.1438 22.1429M13.5 26H8.5V24C8.5 22.3431 9.84315 21 11.5 21C12.4556 21 13.3069 21.4468 13.8562 22.1429M13.5 26V24C13.5 23.3438 13.6264 22.717 13.8562 22.1429M13.8562 22.1429C14.5935 20.301 16.3948 19 18.5 19C20.6052 19 22.4065 20.301 23.1438 22.1429M21.5 13C21.5 14.6569 20.1569 16 18.5 16C16.8431 16 15.5 14.6569 15.5 13C15.5 11.3431 16.8431 10 18.5 10C20.1569 10 21.5 11.3431 21.5 13ZM27.5 16C27.5 17.1046 26.6046 18 25.5 18C24.3954 18 23.5 17.1046 23.5 16C23.5 14.8954 24.3954 14 25.5 14C26.6046 14 27.5 14.8954 27.5 16ZM13.5 16C13.5 17.1046 12.6046 18 11.5 18C10.3954 18 9.5 17.1046 9.5 16C9.5 14.8954 10.3954 14 11.5 14C12.6046 14 13.5 14.8954 13.5 16Z" stroke="#009DFB" stroke-width="2" stroke-linecap="round" stroke-linejoin="round"/>
</svg>
