<svg width="37" height="36" viewBox="0 0 37 36" fill="none" xmlns="http://www.w3.org/2000/svg">
<rect x="0.5" width="36" height="36" rx="8" fill="#E0F3FF"/>
<path d="M16.4762 6L15.8243 7.68887C16.6895 7.55172 17.5841 7.48017 18.5016 7.48017C19.1987 7.48017 19.8846 7.52257 20.5531 7.6034L19.9266 6H16.4762ZM18.5008 8.52833C11.8656 8.52833 6.5 12.6972 6.5 17.8539C6.5 23.0106 11.8656 27.1788 18.5008 27.1788C25.136 27.1788 30.5 23.0106 30.5 17.8539C30.5 12.6965 25.136 8.52833 18.5008 8.52833ZM18.5008 10.6863C23.5952 10.6863 27.7228 13.8944 27.7228 17.8539C27.7228 21.8127 23.5952 25.0228 18.5008 25.0228C13.4072 25.0228 9.27637 21.8127 9.27637 17.8539C9.27637 13.8944 13.4072 10.6863 18.5008 10.6863ZM18.4992 12.7018C14.8386 12.7018 11.8703 15.0075 11.8703 17.8519C11.8703 20.697 14.8386 23.0027 18.4992 23.0027C22.159 23.0027 25.1257 20.697 25.1257 17.8519C25.1257 15.0075 22.159 12.7018 18.4992 12.7018ZM18.5008 14.7558C20.7022 14.7558 22.4865 16.1425 22.4865 17.8539C22.4865 19.5646 20.7022 20.9514 18.5008 20.9514C16.2994 20.9514 14.5151 19.5646 14.5151 17.8539C14.5151 16.1425 16.2994 14.7558 18.5008 14.7558ZM18.5008 16.3559C17.4358 16.3559 16.5714 17.0257 16.5714 17.8539C16.5714 18.6814 17.4358 19.3533 18.5008 19.3533C19.5658 19.3533 20.4278 18.6814 20.4278 17.8539C20.4278 17.0264 19.5658 16.3559 18.5008 16.3559ZM9.07255 25.1924L7.21848 30H10.3406L11.6911 26.7746C10.7379 26.3334 9.85844 25.802 9.07255 25.1924ZM27.5341 25.4873C26.7323 26.0597 25.8442 26.5547 24.8886 26.9608L26.1709 30H29.2946L27.5341 25.4873ZM16.5428 28.1157V30H20.0123V28.1614C19.5103 28.2051 19.0059 28.227 18.5008 28.2276C17.8354 28.2276 17.182 28.1892 16.542 28.1157H16.5428Z" fill="#009DFB"/>
</svg>
