<svg width="56" height="56" viewBox="0 0 56 56" fill="none" xmlns="http://www.w3.org/2000/svg">
<rect width="56" height="56" rx="8" fill="#E0F3FF"/>
<path d="M31 36V34.5C31 32.6875 32.9713 30.9732 34.25 29.75C36.0525 28.0269 37 25.7119 37 23C37 18 33.0169 14 28 14C26.8172 13.9967 25.6454 14.2273 24.552 14.6784C23.4586 15.1295 22.4651 15.7923 21.6287 16.6287C20.7923 17.4651 20.1295 18.4586 19.6784 19.552C19.2273 20.6454 18.9967 21.8172 19 23C19 25.615 19.9882 28.0869 21.75 29.75C23.0219 30.9507 25 32.6688 25 34.5V36M26 42H30M25 39H31M28 36V28" stroke="#009DFB" stroke-width="2" stroke-linecap="round" stroke-linejoin="round"/>
<path d="M30.375 27C30.375 27 29.0306 28 28 28C26.9694 28 25.625 27 25.625 27" stroke="#009DFB" stroke-width="2" stroke-linecap="round" stroke-linejoin="round"/>
</svg>
