<svg width="39" height="38" viewBox="0 0 39 38" fill="none" xmlns="http://www.w3.org/2000/svg">
<rect x="1.33331" y="1" width="36" height="36" rx="6" fill="#009DFB" fill-opacity="0.05"/>
<path d="M20.1666 16.5H24.75L20.1666 11.9167V16.5ZM14.3333 10.6667H21L26 15.6667V25.6667C26 26.1087 25.8244 26.5326 25.5118 26.8452C25.1992 27.1577 24.7753 27.3333 24.3333 27.3333H14.3333C13.8913 27.3333 13.4673 27.1577 13.1548 26.8452C12.8422 26.5326 12.6666 26.1087 12.6666 25.6667V12.3333C12.6666 11.4083 13.4083 10.6667 14.3333 10.6667ZM15.1666 25.6667H16.8333V20.6667H15.1666V25.6667ZM18.5 25.6667H20.1666V19H18.5V25.6667ZM21.8333 25.6667H23.5V22.3333H21.8333V25.6667Z" fill="#009DFB"/>
<rect x="1.33331" y="1" width="36" height="36" rx="6" stroke="#009DFB" stroke-width="1.66"/>
</svg>
