<svg width="41" height="40" viewBox="0 0 41 40" fill="none" xmlns="http://www.w3.org/2000/svg">
<rect x="0.666992" width="40" height="40" rx="6" fill="#3CC93E" fill-opacity="0.1"/>
<path d="M20.6683 6.6665C13.335 6.6665 7.33496 12.6665 7.33496 19.9998C7.33496 27.3332 13.335 33.3332 20.6683 33.3332C28.0017 33.3332 34.0017 27.3332 34.0017 19.9998C34.0017 12.6665 28.0683 6.6665 20.6683 6.6665ZM25.6683 26.1998C22.535 24.2665 18.6017 23.8654 13.9338 24.9321C13.4694 25.0676 13.0683 24.7332 12.935 24.3332C12.8016 23.8654 13.135 23.4665 13.535 23.3332C18.6017 22.1988 23.0017 22.6665 26.4683 24.7998C26.935 24.9998 27.0005 25.5321 26.8027 25.9332C26.5361 26.3321 26.0694 26.4665 25.6683 26.1998ZM27.0005 22.5998C23.4017 20.3998 17.935 19.7332 13.735 21.0665C13.2027 21.1998 12.6016 20.9332 12.4683 20.3998C12.335 19.8665 12.6016 19.2654 13.135 19.1321C18.0017 17.6665 24.0017 18.4009 28.135 20.9332C28.5361 21.1342 28.735 21.7998 28.4027 22.2665C28.0683 22.7332 27.4683 22.9332 27.0005 22.5998ZM13.0683 17.0009C12.4016 17.1998 11.735 16.7998 11.535 16.1998C11.335 15.5321 11.735 14.8665 12.335 14.6654C17.0683 13.2654 24.8683 13.5321 29.8027 16.4665C30.4017 16.7998 30.6017 17.5998 30.2683 18.1998C29.9361 18.6676 29.135 18.8654 28.5361 18.5332C24.2683 15.9998 17.135 15.7332 13.0683 17.0009Z" fill="#3CC93E"/>
</svg>
