<svg width="41" height="40" viewBox="0 0 41 40" fill="none" xmlns="http://www.w3.org/2000/svg">
<rect x="0.333008" width="40" height="40" rx="6" fill="#16B1FF" fill-opacity="0.1"/>
<path d="M30.9997 33.3332H9.66634C8.92997 33.3332 8.33301 32.7362 8.33301 31.9998V7.99984C8.33301 7.26346 8.92997 6.6665 9.66634 6.6665H30.9997C31.7361 6.6665 32.333 7.26346 32.333 7.99984V31.9998C32.333 32.7362 31.7361 33.3332 30.9997 33.3332ZM13.6663 11.9998V17.3332H18.9997V11.9998H13.6663ZM13.6663 19.9998V22.6665H26.9997V19.9998H13.6663ZM13.6663 25.3332V27.9998H26.9997V25.3332H13.6663ZM21.6663 13.3332V15.9998H26.9997V13.3332H21.6663Z" fill="#009DFB"/>
</svg>
