<svg width="100" height="100" viewBox="0 0 100 100" fill="none" xmlns="http://www.w3.org/2000/svg">
<path d="M50 9.375C41.9652 9.375 34.1107 11.7576 27.43 16.2215C20.7492 20.6855 15.5422 27.0302 12.4674 34.4535C9.3926 41.8767 8.58809 50.0451 10.1556 57.9255C11.7231 65.806 15.5923 73.0447 21.2738 78.7262C26.9553 84.4077 34.194 88.2769 42.0745 89.8444C49.955 91.4119 58.1233 90.6074 65.5465 87.5326C72.9698 84.4578 79.3145 79.2508 83.7785 72.57C88.2424 65.8893 90.625 58.0349 90.625 50C90.6136 39.2291 86.3299 28.9026 78.7137 21.2863C71.0975 13.6701 60.7709 9.38637 50 9.375ZM71.875 53.125H50C49.1712 53.125 48.3764 52.7958 47.7903 52.2097C47.2043 51.6237 46.875 50.8288 46.875 50V28.125C46.875 27.2962 47.2043 26.5013 47.7903 25.9153C48.3764 25.3292 49.1712 25 50 25C50.8288 25 51.6237 25.3292 52.2097 25.9153C52.7958 26.5013 53.125 27.2962 53.125 28.125V46.875H71.875C72.7038 46.875 73.4987 47.2042 74.0847 47.7903C74.6708 48.3763 75 49.1712 75 50C75 50.8288 74.6708 51.6237 74.0847 52.2097C73.4987 52.7958 72.7038 53.125 71.875 53.125Z" fill="#A6A6A6"/>
</svg>
