<svg width="100" height="100" viewBox="0 0 100 100" fill="none" xmlns="http://www.w3.org/2000/svg">
<path fill-rule="evenodd" clip-rule="evenodd" d="M30 10C27.3478 10 24.8043 11.0536 22.9289 12.9289C21.0536 14.8043 20 17.3478 20 20V80C20 82.6522 21.0536 85.1957 22.9289 87.0711C24.8043 88.9464 27.3478 90 30 90H70C72.6522 90 75.1957 88.9464 77.0711 87.0711C78.9464 85.1957 80 82.6522 80 80V37.07C79.9994 34.4181 78.9455 31.8749 77.07 30L60 12.93C58.1251 11.0545 55.582 10.0006 52.93 10H30ZM40 60C40 58.6739 39.4732 57.4021 38.5355 56.4645C37.5979 55.5268 36.3261 55 35 55C33.6739 55 32.4021 55.5268 31.4645 56.4645C30.5268 57.4021 30 58.6739 30 60V75C30 76.3261 30.5268 77.5979 31.4645 78.5355C32.4021 79.4732 33.6739 80 35 80C36.3261 80 37.5979 79.4732 38.5355 78.5355C39.4732 77.5979 40 76.3261 40 75V60ZM50 45C51.3261 45 52.5979 45.5268 53.5355 46.4645C54.4732 47.4021 55 48.6739 55 50V75C55 76.3261 54.4732 77.5979 53.5355 78.5355C52.5979 79.4732 51.3261 80 50 80C48.6739 80 47.4021 79.4732 46.4645 78.5355C45.5268 77.5979 45 76.3261 45 75V50C45 48.6739 45.5268 47.4021 46.4645 46.4645C47.4021 45.5268 48.6739 45 50 45ZM70 40C70 38.6739 69.4732 37.4021 68.5355 36.4645C67.5979 35.5268 66.3261 35 65 35C63.6739 35 62.4021 35.5268 61.4645 36.4645C60.5268 37.4021 60 38.6739 60 40V75C60 76.3261 60.5268 77.5979 61.4645 78.5355C62.4021 79.4732 63.6739 80 65 80C66.3261 80 67.5979 79.4732 68.5355 78.5355C69.4732 77.5979 70 76.3261 70 75V40Z" fill="#A6A6A6"/>
</svg>
