<svg width="36" height="36" viewBox="0 0 36 36" fill="none" xmlns="http://www.w3.org/2000/svg">
<rect width="36" height="36" rx="8" fill="#E0F3FF"/>
<path d="M15.6635 23H20.3364M17.9999 9V10M24.3639 11.636L23.6568 12.3431M27 17.9999H26M10 17.9999H9M12.3431 12.3431L11.636 11.636M14.4644 21.5356C12.5118 19.5829 12.5118 16.4171 14.4644 14.4645C16.417 12.5119 19.5829 12.5119 21.5355 14.4645C23.4881 16.4171 23.4881 19.5829 21.5355 21.5356L20.9884 22.0827C20.3555 22.7155 19.9999 23.5739 19.9999 24.469V25C19.9999 26.1046 19.1045 27 17.9999 27C16.8954 27 15.9999 26.1046 15.9999 25V24.469C15.9999 23.5739 15.6444 22.7155 15.0115 22.0827L14.4644 21.5356Z" stroke="#009DFB" stroke-width="2" stroke-linecap="round" stroke-linejoin="round"/>
</svg>
