<svg width="36" height="36" viewBox="0 0 36 36" fill="none" xmlns="http://www.w3.org/2000/svg">
<rect width="36" height="36" rx="8" fill="#E0F3FF"/>
<path d="M25 17H11M25 17C26.1046 17 27 17.8954 27 19V25C27 26.1046 26.1046 27 25 27H11C9.89543 27 9 26.1046 9 25V19C9 17.8954 9.89543 17 11 17M25 17V15C25 13.8954 24.1046 13 23 13M11 17V15C11 13.8954 11.8954 13 13 13M13 13V11C13 9.89543 13.8954 9 15 9H21C22.1046 9 23 9.89543 23 11V13M13 13H23" stroke="#009DFB" stroke-width="2" stroke-linecap="round" stroke-linejoin="round"/>
</svg>
