<svg class="icon" width="56" height="56" viewBox="0 0 56 56" fill="none" xmlns="http://www.w3.org/2000/svg">
<rect width="56" height="56" rx="8" fill="#E0F3FF"/>
<path d="M33 17.0725V16C33 15.2044 32.6839 14.4413 32.1213 13.8787C31.5587 13.3161 30.7956 13 30 13H26C25.2044 13 24.4413 13.3161 23.8787 13.8787C23.3161 14.4413 23 15.2044 23 16V17.0725C21.3351 17.3152 19.813 18.1484 18.7115 19.4202C17.61 20.692 17.0025 22.3175 17 24V39C17 39.5304 17.2107 40.0391 17.5858 40.4142C17.9609 40.7893 18.4696 41 19 41H37C37.5304 41 38.0391 40.7893 38.4142 40.4142C38.7893 40.0391 39 39.5304 39 39V24C38.9975 22.3175 38.39 20.692 37.2885 19.4202C36.187 18.1484 34.6649 17.3152 33 17.0725ZM26 15H30C30.2652 15 30.5196 15.1054 30.7071 15.2929C30.8946 15.4804 31 15.7348 31 16V17H25V16C25 15.7348 25.1054 15.4804 25.2929 15.2929C25.4804 15.1054 25.7348 15 26 15ZM33 32H23V31C23 30.7348 23.1054 30.4804 23.2929 30.2929C23.4804 30.1054 23.7348 30 24 30H32C32.2652 30 32.5196 30.1054 32.7071 30.2929C32.8946 30.4804 33 30.7348 33 31V32ZM23 34H29V35C29 35.2652 29.1054 35.5196 29.2929 35.7071C29.4804 35.8946 29.7348 36 30 36C30.2652 36 30.5196 35.8946 30.7071 35.7071C30.8946 35.5196 31 35.2652 31 35V34H33V39H23V34ZM37 39H35V31C35 30.2044 34.6839 29.4413 34.1213 28.8787C33.5587 28.3161 32.7956 28 32 28H24C23.2044 28 22.4413 28.3161 21.8787 28.8787C21.3161 29.4413 21 30.2044 21 31V39H19V24C19 22.6739 19.5268 21.4021 20.4645 20.4645C21.4021 19.5268 22.6739 19 24 19H32C33.3261 19 34.5979 19.5268 35.5355 20.4645C36.4732 21.4021 37 22.6739 37 24V39ZM31 23C31 23.2652 30.8946 23.5196 30.7071 23.7071C30.5196 23.8946 30.2652 24 30 24H26C25.7348 24 25.4804 23.8946 25.2929 23.7071C25.1054 23.5196 25 23.2652 25 23C25 22.7348 25.1054 22.4804 25.2929 22.2929C25.4804 22.1054 25.7348 22 26 22H30C30.2652 22 30.5196 22.1054 30.7071 22.2929C30.8946 22.4804 31 22.7348 31 23Z" fill="#009DFB"/>
</svg>
