<svg width="40" height="40" viewBox="0 0 40 40" fill="none" xmlns="http://www.w3.org/2000/svg">
<rect width="40" height="40" rx="8" fill="#E0F3FF"/>
<path d="M16.2277 17C16.7768 15.8348 18.2584 15 20.0001 15C22.2092 15 24.0001 16.3431 24.0001 18C24.0001 19.3994 22.7224 20.5751 20.9943 20.9066C20.4519 21.0106 20.0001 21.4477 20.0001 22M20 25H20.01M29 20C29 24.9706 24.9706 29 20 29C15.0294 29 11 24.9706 11 20C11 15.0294 15.0294 11 20 11C24.9706 11 29 15.0294 29 20Z" stroke="#009DFB" stroke-width="2" stroke-linecap="round" stroke-linejoin="round"/>
</svg>
