<svg width="56" height="56" viewBox="0 0 56 56" fill="none" xmlns="http://www.w3.org/2000/svg">
<rect width="56" height="56" rx="8" fill="#E0F3FF"/>
<path d="M28 18C25.6276 18.0001 23.3084 18.7035 21.3355 20.0212C19.3627 21.3389 17.8247 23.2118 16.9159 25.4033C16.0071 27.5948 15.7683 30.0065 16.2297 32.3337C16.691 34.6608 17.8319 36.799 19.508 38.478C19.6034 38.5704 19.6794 38.6808 19.7316 38.8029C19.7839 38.925 19.8112 39.0562 19.8122 39.189C19.8132 39.3218 19.7877 39.4534 19.7372 39.5763C19.6868 39.6991 19.6124 39.8106 19.5183 39.9044C19.4243 39.9981 19.3126 40.0722 19.1896 40.1223C19.0666 40.1724 18.9349 40.1976 18.8022 40.1962C18.6694 40.1949 18.5382 40.1671 18.4163 40.1145C18.2944 40.062 18.1841 39.9856 18.092 39.89C16.1365 37.9311 14.8055 35.4365 14.2673 32.7214C13.729 30.0064 14.0077 27.1927 15.068 24.6359C16.1283 22.0791 17.9228 19.8941 20.2245 18.3568C22.5263 16.8195 25.2321 15.999 28 15.999C30.7679 15.999 33.4737 16.8195 35.7755 18.3568C38.0773 19.8941 39.8717 22.0791 40.932 24.6359C41.9923 27.1927 42.271 30.0064 41.7328 32.7214C41.1945 35.4365 39.8635 37.9311 37.908 39.89C37.8159 39.9856 37.7057 40.062 37.5837 40.1145C37.4618 40.1671 37.3306 40.1949 37.1979 40.1962C37.0651 40.1976 36.9334 40.1724 36.8104 40.1223C36.6874 40.0722 36.5757 39.9981 36.4817 39.9044C36.3876 39.8106 36.3132 39.6991 36.2628 39.5763C36.2123 39.4534 36.1868 39.3218 36.1878 39.189C36.1888 39.0562 36.2162 38.925 36.2684 38.8029C36.3206 38.6808 36.3966 38.5704 36.492 38.478C38.1681 36.799 39.309 34.6608 39.7703 32.3337C40.2317 30.0065 39.9929 27.5948 39.0841 25.4033C38.1754 23.2118 36.6374 21.3389 34.6645 20.0212C32.6916 18.7035 30.3725 18.0001 28 18ZM28 23C26.6155 22.9999 25.262 23.4104 24.1108 24.1796C22.9595 24.9487 22.0622 26.042 21.5324 27.3212C21.0025 28.6003 20.8639 30.0078 21.134 31.3658C21.4042 32.7237 22.0709 33.971 23.05 34.95C23.1455 35.0423 23.2217 35.1526 23.2741 35.2746C23.3265 35.3966 23.3541 35.5278 23.3553 35.6606C23.3564 35.7934 23.3311 35.9251 23.2808 36.048C23.2305 36.1709 23.1563 36.2825 23.0624 36.3764C22.9685 36.4703 22.8569 36.5445 22.734 36.5948C22.6111 36.6451 22.4794 36.6704 22.3466 36.6693C22.2138 36.6681 22.0826 36.6405 21.9606 36.5881C21.8386 36.5357 21.7283 36.4595 21.636 36.364C20.3773 35.1053 19.5202 33.5017 19.1729 31.7559C18.8257 30.01 19.0039 28.2004 19.6851 26.5559C20.3663 24.9114 21.5198 23.5058 22.9999 22.5168C24.4799 21.5279 26.22 21.0001 28 21.0001C29.78 21.0001 31.5201 21.5279 33.0001 22.5168C34.4802 23.5058 35.6337 24.9114 36.3149 26.5559C36.9961 28.2004 37.1743 30.01 36.8271 31.7559C36.4798 33.5017 35.6227 35.1053 34.364 36.364C34.1754 36.5462 33.9228 36.647 33.6606 36.6447C33.3984 36.6424 33.1476 36.5372 32.9622 36.3518C32.7768 36.1664 32.6716 35.9156 32.6693 35.6534C32.6671 35.3912 32.7678 35.1386 32.95 34.95C33.9291 33.971 34.5958 32.7237 34.866 31.3658C35.1361 30.0078 34.9975 28.6003 34.4676 27.3212C33.9378 26.042 33.0405 24.9487 31.8893 24.1796C30.738 23.4104 29.3845 22.9999 28 23ZM28 26C26.9391 26 25.9217 26.4214 25.1716 27.1716C24.4214 27.9217 24 28.9391 24 30C24 31.0609 24.4214 32.0783 25.1716 32.8284C25.9217 33.5786 26.9391 34 28 34C29.0609 34 30.0783 33.5786 30.8284 32.8284C31.5786 32.0783 32 31.0609 32 30C32 28.9391 31.5786 27.9217 30.8284 27.1716C30.0783 26.4214 29.0609 26 28 26ZM26 30C26 29.4696 26.2107 28.9609 26.5858 28.5858C26.9609 28.2107 27.4696 28 28 28C28.5304 28 29.0391 28.2107 29.4142 28.5858C29.7893 28.9609 30 29.4696 30 30C30 30.5304 29.7893 31.0391 29.4142 31.4142C29.0391 31.7893 28.5304 32 28 32C27.4696 32 26.9609 31.7893 26.5858 31.4142C26.2107 31.0391 26 30.5304 26 30Z" fill="#009DFB"/>
</svg>
