<svg width="56" height="56" viewBox="0 0 56 56" fill="none" xmlns="http://www.w3.org/2000/svg">
<rect width="56" height="56" rx="8" fill="#E0F3FF"/>
<path d="M30 30.5C30 30.9945 29.8534 31.4778 29.5787 31.8889C29.304 32.3 28.9135 32.6205 28.4567 32.8097C27.9999 32.9989 27.4972 33.0484 27.0123 32.952C26.5273 32.8555 26.0819 32.6174 25.7322 32.2678C25.3826 31.9181 25.1445 31.4727 25.048 30.9877C24.9516 30.5028 25.0011 30.0001 25.1903 29.5433C25.3795 29.0865 25.7 28.696 26.1111 28.4213C26.5222 28.1466 27.0055 28 27.5 28C28.163 28 28.7989 28.2634 29.2678 28.7322C29.7366 29.2011 30 29.837 30 30.5ZM39 23V39C39 39.5304 38.7893 40.0391 38.4142 40.4142C38.0391 40.7893 37.5304 41 37 41H19C18.4696 41 17.9609 40.7893 17.5858 40.4142C17.2107 40.0391 17 39.5304 17 39V17C17 16.4696 17.2107 15.9609 17.5858 15.5858C17.9609 15.2107 18.4696 15 19 15H31C31.1314 14.9999 31.2615 15.0257 31.3829 15.0759C31.5042 15.1261 31.6146 15.1997 31.7075 15.2925L38.7075 22.2925C38.8003 22.3854 38.8739 22.4958 38.9241 22.6172C38.9743 22.7385 39.0001 22.8686 39 23ZM32.7075 34.2925L31.3075 32.8937C31.8977 31.956 32.1216 30.8336 31.9366 29.7411C31.7516 28.6486 31.1705 27.6626 30.3044 26.9715C29.4384 26.2803 28.348 25.9325 27.2417 25.9944C26.1354 26.0564 25.0907 26.5237 24.3072 27.3072C23.5237 28.0907 23.0564 29.1354 22.9944 30.2417C22.9325 31.348 23.2803 32.4384 23.9715 33.3044C24.6626 34.1705 25.6486 34.7516 26.7411 34.9366C27.8336 35.1216 28.956 34.8977 29.8937 34.3075L31.2925 35.7075C31.3854 35.8004 31.4957 35.8741 31.6171 35.9244C31.7385 35.9747 31.8686 36.0006 32 36.0006C32.1314 36.0006 32.2615 35.9747 32.3829 35.9244C32.5043 35.8741 32.6146 35.8004 32.7075 35.7075C32.8004 35.6146 32.8741 35.5043 32.9244 35.3829C32.9747 35.2615 33.0006 35.1314 33.0006 35C33.0006 34.8686 32.9747 34.7385 32.9244 34.6171C32.8741 34.4957 32.8004 34.3854 32.7075 34.2925ZM36.5 23L31 17.5V23H36.5Z" fill="#009DFB"/>
</svg>
