<svg width="56" height="56" viewBox="0 0 56 56" fill="none" xmlns="http://www.w3.org/2000/svg">
<rect width="56" height="56" rx="8" fill="#E0F3FF"/>
<path d="M34.6574 14.1974C34.6245 13.958 34.5061 13.7386 34.324 13.5797C34.1418 13.4209 33.9084 13.3334 33.6667 13.3334L33.5307 13.3427L33.4014 13.3694C33.1903 13.4275 33.0041 13.5532 32.8714 13.7274C32.7386 13.9015 32.6667 14.1144 32.6667 14.3334V17.332H30.332L30.3334 14.3334L30.324 14.1974C30.2912 13.958 30.1727 13.7386 29.9906 13.5797C29.8085 13.4209 29.575 13.3334 29.3334 13.3334L29.1974 13.3427C28.958 13.3756 28.7386 13.494 28.5797 13.6761C28.4209 13.8583 28.3334 14.0917 28.3334 14.3334L28.332 17.332H26V14.3334L25.9907 14.1974C25.9562 13.9464 25.8277 13.7178 25.6311 13.558C25.4346 13.3981 25.1847 13.3187 24.9319 13.336C24.6791 13.3533 24.4423 13.4659 24.2693 13.651C24.0964 13.8361 24.0001 14.08 24 14.3334V17.4334C23.0396 17.6299 22.158 18.1041 21.4647 18.7972C20.7714 19.4903 20.2969 20.3717 20.1 21.332L17 21.3334L16.864 21.3427C16.6246 21.3756 16.4052 21.494 16.2464 21.6761C16.0876 21.8583 16.0001 22.0917 16 22.3334L16.0094 22.4694C16.0422 22.7088 16.1607 22.9282 16.3428 23.087C16.5249 23.2459 16.7584 23.3334 17 23.3334L20 23.332V25.6654L17 25.6667L16.864 25.676C16.6246 25.7089 16.4052 25.8273 16.2464 26.0095C16.0876 26.1916 16.0001 26.4251 16 26.6667L16.0094 26.8027C16.0359 27.0033 16.1234 27.1909 16.26 27.34C17.5336 26.7516 18.9491 26.5409 20.3388 26.7328C21.7285 26.9246 23.034 27.5111 24.1004 28.4226C25.1668 29.334 25.9495 30.5323 26.3554 31.8751C26.7614 33.218 26.7736 34.6491 26.3907 35.9987H28.332L28.3334 39L28.3427 39.136C28.3756 39.3754 28.494 39.5949 28.6761 39.7537C28.8583 39.9125 29.0917 40 29.3334 40L29.4694 39.9907C29.7088 39.9578 29.9282 39.8394 30.087 39.6573C30.2459 39.4752 30.3334 39.2417 30.3334 39L30.332 35.9987H32.6667V39L32.676 39.136C32.7106 39.387 32.8391 39.6156 33.0356 39.7755C33.2322 39.9354 33.4821 40.0147 33.7349 39.9974C33.9876 39.9801 34.2244 39.8676 34.3974 39.6824C34.5704 39.4973 34.6666 39.2534 34.6667 39V35.9C35.6261 35.7035 36.5068 35.2299 37.1998 34.5379C37.8927 33.8459 38.3675 32.9658 38.5654 32.0067H41.6667L41.8027 31.9974C42.0421 31.9645 42.2615 31.8461 42.4204 31.6639C42.5792 31.4818 42.6667 31.2484 42.6667 31.0067L42.6574 30.8707C42.6245 30.6313 42.5061 30.4119 42.324 30.2531C42.1418 30.0942 41.9084 30.0067 41.6667 30.0067L38.6667 30.0054V27.672H41.6667L41.8027 27.664C42.0421 27.6312 42.2615 27.5127 42.4204 27.3306C42.5792 27.1485 42.6667 26.915 42.6667 26.6734L42.6574 26.5374C42.6245 26.298 42.5061 26.0786 42.324 25.9197C42.1418 25.7609 41.9084 25.6734 41.6667 25.6734L38.6667 25.672V23.3387H41.6667L41.8027 23.3307C42.0537 23.2962 42.2822 23.1676 42.4421 22.9711C42.602 22.7746 42.6813 22.5247 42.6641 22.2719C42.6468 22.0191 42.5342 21.7823 42.3491 21.6093C42.164 21.4364 41.9201 21.3401 41.6667 21.34H38.568C38.3727 20.3778 37.8987 19.4942 37.2051 18.7994C36.5114 18.1045 35.6286 17.629 34.6667 17.432V14.3334L34.6574 14.1974ZM25.34 26.6734C25.34 26.1481 25.4435 25.6279 25.6445 25.1426C25.8455 24.6573 26.1402 24.2164 26.5116 23.8449C26.8831 23.4735 27.324 23.1789 27.8093 22.9779C28.2946 22.7768 28.8148 22.6734 29.34 22.6734C29.8653 22.6734 30.3855 22.7768 30.8708 22.9779C31.3561 23.1789 31.797 23.4735 32.1685 23.8449C32.5399 24.2164 32.8345 24.6573 33.0356 25.1426C33.2366 25.6279 33.34 26.1481 33.34 26.6734C33.34 27.7342 32.9186 28.7517 32.1685 29.5018C31.4183 30.2519 30.4009 30.6734 29.34 30.6734C28.2792 30.6734 27.2618 30.2519 26.5116 29.5018C25.7615 28.7517 25.34 27.7342 25.34 26.6734ZM31.34 26.6734C31.34 26.4107 31.2883 26.1507 31.1878 25.908C31.0873 25.6654 30.94 25.4449 30.7543 25.2592C30.5685 25.0734 30.3481 24.9261 30.1054 24.8256C29.8628 24.7251 29.6027 24.6734 29.34 24.6734C29.0774 24.6734 28.8173 24.7251 28.5747 24.8256C28.332 24.9261 28.1115 25.0734 27.9258 25.2592C27.7401 25.4449 27.5928 25.6654 27.4923 25.908C27.3918 26.1507 27.34 26.4107 27.34 26.6734C27.34 27.2038 27.5508 27.7125 27.9258 28.0876C28.3009 28.4627 28.8096 28.6734 29.34 28.6734C29.8705 28.6734 30.3792 28.4627 30.7543 28.0876C31.1293 27.7125 31.34 27.2038 31.34 26.6734ZM19.3334 40C20.5794 40.0019 21.7948 39.614 22.8094 38.8907L26.2934 42.3734C26.3849 42.4716 26.4953 42.5504 26.618 42.6051C26.7407 42.6597 26.8731 42.6891 27.0073 42.6915C27.1416 42.6939 27.275 42.6692 27.3995 42.6189C27.524 42.5686 27.6371 42.4937 27.7321 42.3988C27.8271 42.3038 27.9019 42.1907 27.9522 42.0662C28.0025 41.9417 28.0272 41.8083 28.0248 41.674C28.0225 41.5397 27.9931 41.4073 27.9384 41.2847C27.8838 41.162 27.805 41.0516 27.7067 40.96L24.224 37.476C25.0033 36.3797 25.3915 35.0534 25.3265 33.7099C25.2614 32.3664 24.7469 31.0838 23.8654 30.0679C22.9839 29.052 21.7866 28.3617 20.4658 28.1078C19.1449 27.854 17.7771 28.0514 16.5818 28.6682C15.3866 29.2851 14.4333 30.2856 13.8749 31.5093C13.3166 32.733 13.1856 34.1087 13.5029 35.4158C13.8203 36.7229 14.5676 37.8854 15.625 38.7167C16.6823 39.5481 17.9883 40 19.3334 40ZM19.3334 38C18.2725 38 17.2551 37.5786 16.505 36.8285C15.7548 36.0783 15.3334 35.0609 15.3334 34C15.3334 32.9392 15.7548 31.9218 16.505 31.1716C17.2551 30.4215 18.2725 30 19.3334 30C20.3942 30 21.4117 30.4215 22.1618 31.1716C22.912 31.9218 23.3334 32.9392 23.3334 34C23.3334 35.0609 22.912 36.0783 22.1618 36.8285C21.4117 37.5786 20.3942 38 19.3334 38Z" fill="#009DFB"/>
</svg>
