<svg width="48" height="48" viewBox="0 0 48 48" fill="none" xmlns="http://www.w3.org/2000/svg">
<rect width="48" height="48" rx="8" fill="#E0F3FF"/>
<path d="M32.25 15.75H15.75C15.3522 15.75 14.9706 15.908 14.6893 16.1893C14.408 16.4706 14.25 16.8522 14.25 17.25V30.75C14.25 31.1478 14.408 31.5294 14.6893 31.8107C14.9706 32.092 15.3522 32.25 15.75 32.25H32.25C32.6478 32.25 33.0294 32.092 33.3107 31.8107C33.592 31.5294 33.75 31.1478 33.75 30.75V17.25C33.75 16.8522 33.592 16.4706 33.3107 16.1893C33.0294 15.908 32.6478 15.75 32.25 15.75ZM18.375 21C18.1525 21 17.935 20.934 17.75 20.8104C17.565 20.6868 17.4208 20.5111 17.3356 20.3055C17.2505 20.1 17.2282 19.8738 17.2716 19.6555C17.315 19.4373 17.4222 19.2368 17.5795 19.0795C17.7368 18.9222 17.9373 18.815 18.1555 18.7716C18.3738 18.7282 18.6 18.7505 18.8055 18.8356C19.0111 18.9208 19.1868 19.065 19.3104 19.25C19.434 19.435 19.5 19.6525 19.5 19.875C19.5 20.1734 19.3815 20.4595 19.1705 20.6705C18.9595 20.8815 18.6734 21 18.375 21ZM22.125 21C21.9025 21 21.685 20.934 21.5 20.8104C21.315 20.6868 21.1708 20.5111 21.0856 20.3055C21.0005 20.1 20.9782 19.8738 21.0216 19.6555C21.065 19.4373 21.1722 19.2368 21.3295 19.0795C21.4868 18.9222 21.6873 18.815 21.9055 18.7716C22.1238 18.7282 22.35 18.7505 22.5555 18.8356C22.7611 18.9208 22.9368 19.065 23.0604 19.25C23.184 19.435 23.25 19.6525 23.25 19.875C23.25 20.1734 23.1315 20.4595 22.9205 20.6705C22.7095 20.8815 22.4234 21 22.125 21Z" fill="#009DFB "/>
</svg>
