<svg width="56" height="56" viewBox="0 0 56 56" fill="none" xmlns="http://www.w3.org/2000/svg">
<rect width="56" height="56" rx="8" fill="#E0F3FF"/>
<path d="M38 15H21C19.9391 15 18.9217 15.4214 18.1716 16.1716C17.4214 16.9217 17 17.9391 17 19V40C17 40.2652 17.1054 40.5196 17.2929 40.7071C17.4804 40.8946 17.7348 41 18 41H36C36.2652 41 36.5196 40.8946 36.7071 40.7071C36.8946 40.5196 37 40.2652 37 40C37 39.7348 36.8946 39.4804 36.7071 39.2929C36.5196 39.1054 36.2652 39 36 39H19C19 38.4696 19.2107 37.9609 19.5858 37.5858C19.9609 37.2107 20.4696 37 21 37H38C38.2652 37 38.5196 36.8946 38.7071 36.7071C38.8946 36.5196 39 36.2652 39 36V16C39 15.7348 38.8946 15.4804 38.7071 15.2929C38.5196 15.1054 38.2652 15 38 15ZM35 27L31.7987 24.6C31.7122 24.5351 31.6069 24.5 31.4988 24.5C31.3906 24.5 31.2853 24.5351 31.1987 24.6L28 27V17H35V27Z" fill="#009DFB"/>
</svg>
