<svg width="36" height="36" viewBox="0 0 36 36" fill="none" xmlns="http://www.w3.org/2000/svg">
<rect width="36" height="36" rx="8" fill="#E0F3FF"/>
<path d="M25 26H11C9.89543 26 9 25.1046 9 24L9 12C9 10.8954 9.89543 10 11 10L21 10C22.1046 10 23 10.8954 23 12V13M25 26C23.8954 26 23 25.1046 23 24L23 13M25 26C26.1046 26 27 25.1046 27 24V15C27 13.8954 26.1046 13 25 13L23 13M19 10L15 10M13 22H19M13 14H19V18H13V14Z" stroke="#009DFB" stroke-width="2" stroke-linecap="round" stroke-linejoin="round"/>
</svg>
