<svg width="36" height="36" viewBox="0 0 36 36" fill="none" xmlns="http://www.w3.org/2000/svg">
<rect width="36" height="36" rx="8" fill="#E0F3FF"/>
<path d="M23 20V26M20 23H26M12 16H14C15.1046 16 16 15.1046 16 14V12C16 10.8954 15.1046 10 14 10H12C10.8954 10 10 10.8954 10 12V14C10 15.1046 10.8954 16 12 16ZM22 16H24C25.1046 16 26 15.1046 26 14V12C26 10.8954 25.1046 10 24 10H22C20.8954 10 20 10.8954 20 12V14C20 15.1046 20.8954 16 22 16ZM12 26H14C15.1046 26 16 25.1046 16 24V22C16 20.8954 15.1046 20 14 20H12C10.8954 20 10 20.8954 10 22V24C10 25.1046 10.8954 26 12 26Z" stroke="#009DFB" stroke-width="2" stroke-linecap="round" stroke-linejoin="round"/>
</svg>
