<svg width="36" height="36" viewBox="0 0 36 36" fill="none" xmlns="http://www.w3.org/2000/svg">
<rect width="36" height="36" rx="8" fill="#E0F3FF"/>
<path d="M27 18C27 22.9706 22.9706 27 18 27M27 18C27 13.0294 22.9706 9 18 9M27 18H9M18 27C13.0294 27 9 22.9706 9 18M18 27C19.6569 27 21 22.9706 21 18C21 13.0294 19.6569 9 18 9M18 27C16.3431 27 15 22.9706 15 18C15 13.0294 16.3431 9 18 9M9 18C9 13.0294 13.0294 9 18 9" stroke="#009DFB" stroke-width="2" stroke-linecap="round" stroke-linejoin="round"/>
</svg>
