<svg width="56" height="56" viewBox="0 0 56 56" fill="none" xmlns="http://www.w3.org/2000/svg">
<rect width="56" height="56" rx="8" fill="#E0F3FF"/>
<path d="M30.6666 36.42C29.2041 35.7234 27.9468 34.66 27.0173 33.3333H15.9999V17.3333H39.9999V20.352C41.0803 21.1096 41.9889 22.0864 42.6666 23.2186V17.3333C42.6645 16.6267 42.3828 15.9496 41.8832 15.45C41.3836 14.9504 40.7065 14.6687 39.9999 14.6666H15.9999C15.2933 14.6687 14.6163 14.9504 14.1166 15.45C13.617 15.9496 13.3354 16.6267 13.3333 17.3333V33.3333C13.3354 34.0399 13.617 34.7169 14.1166 35.2166C14.6163 35.7162 15.2933 35.9978 15.9999 36H25.3333V38.6666H22.6666V41.3333H33.3333V38.6666H30.6666V36.42Z" fill="#009DFB"/>
<path d="M34.6668 20C33.0845 20 31.5378 20.4692 30.2222 21.3482C28.9066 22.2273 27.8812 23.4767 27.2757 24.9385C26.6702 26.4003 26.5118 28.0089 26.8205 29.5607C27.1292 31.1126 27.8911 32.538 29.0099 33.6569C30.1287 34.7757 31.5542 35.5376 33.106 35.8463C34.6579 36.155 36.2664 35.9965 37.7282 35.391C39.19 34.7855 40.4395 33.7602 41.3185 32.4446C42.1976 31.129 42.6668 29.5823 42.6668 28C42.6671 26.9493 42.4604 25.9089 42.0585 24.9381C41.6566 23.9674 41.0673 23.0853 40.3244 22.3424C39.5814 21.5994 38.6994 21.0102 37.7286 20.6083C36.7579 20.2063 35.7174 19.9997 34.6668 20ZM34.6668 33.3333C33.6119 33.3333 32.5808 33.0205 31.7037 32.4345C30.8266 31.8485 30.1431 31.0155 29.7394 30.041C29.3357 29.0664 29.2301 27.9941 29.4359 26.9595C29.6417 25.925 30.1496 24.9746 30.8955 24.2288C31.6414 23.4829 32.5917 22.9749 33.6263 22.7691C34.6608 22.5634 35.7332 22.669 36.7077 23.0726C37.6823 23.4763 38.5152 24.1599 39.1013 25.037C39.6873 25.914 40.0001 26.9452 40.0001 28C39.9983 29.4139 39.4359 30.7695 38.436 31.7693C37.4362 32.7691 36.0807 33.3316 34.6668 33.3333Z" fill="#009DFB"/>
<path d="M34.6666 29.3333C35.403 29.3333 35.9999 28.7363 35.9999 28C35.9999 27.2636 35.403 26.6666 34.6666 26.6666C33.9302 26.6666 33.3333 27.2636 33.3333 28C33.3333 28.7363 33.9302 29.3333 34.6666 29.3333Z" fill="#009DFB"/>
</svg>
