<svg width="29" height="29" viewBox="0 0 29 29" fill="none" xmlns="http://www.w3.org/2000/svg">
<mask id="mask0_1439_2275" style="mask-type:luminance" maskUnits="userSpaceOnUse" x="0" y="0" width="29" height="29">
<path d="M14.5 27C16.1418 27.0021 17.7679 26.6798 19.2848 26.0515C20.8016 25.4231 22.1793 24.5012 23.3388 23.3388C24.5012 22.1793 25.4231 20.8016 26.0515 19.2848C26.6798 17.7679 27.0021 16.1418 27 14.5C27.0021 12.8582 26.6797 11.2321 26.0514 9.71528C25.4231 8.19843 24.5012 6.8207 23.3388 5.66126C22.1793 4.49878 20.8016 3.57688 19.2848 2.94856C17.7679 2.32024 16.1418 1.99788 14.5 2.00001C12.8582 1.99792 11.2321 2.32029 9.71528 2.94861C8.19843 3.57693 6.8207 4.49881 5.66126 5.66126C4.49881 6.8207 3.57693 8.19843 2.94861 9.71528C2.32029 11.2321 1.99792 12.8582 2.00001 14.5C1.99788 16.1418 2.32024 17.7679 2.94856 19.2848C3.57688 20.8016 4.49878 22.1793 5.66126 23.3388C6.8207 24.5012 8.19843 25.4231 9.71528 26.0514C11.2321 26.6797 12.8582 27.0021 14.5 27Z" fill="white" stroke="white" stroke-width="4" stroke-linejoin="round"/>
<path d="M9.5 14.5L13.25 18.25L20.75 10.75" stroke="black" stroke-width="4" stroke-linecap="round" stroke-linejoin="round"/>
</mask>
<g mask="url(#mask0_1439_2275)">
<path d="M-0.5 -0.5H29.5V29.5H-0.5V-0.5Z" fill="white"/>
</g>
</svg>
