<svg width="56" height="56" viewBox="0 0 56 56" fill="none" xmlns="http://www.w3.org/2000/svg">
<rect width="56" height="56" rx="8" fill="#E0F3FF"/>
<path d="M16.6666 36.6667V19.3334C16.6666 18.2725 17.0881 17.2551 17.8382 16.5049C18.5883 15.7548 19.6058 15.3334 20.6666 15.3334H35.3333V32.6667H20.6666C18.4666 32.6667 16.6666 34.456 16.6666 36.6667Z" stroke="#009DFB" stroke-width="2.5" stroke-linejoin="round"/>
<path d="M35.3333 32.6667H20.6666C19.6058 32.6667 18.5883 33.0882 17.8382 33.8383C17.0881 34.5885 16.6666 35.6059 16.6666 36.6667C16.6666 37.7276 17.0881 38.745 17.8382 39.4952C18.5883 40.2453 19.6058 40.6667 20.6666 40.6667H39.3333V16.6667M21.3333 36.6667H34.6666" stroke="#009DFB" stroke-width="2.5" stroke-linecap="round" stroke-linejoin="round"/>
</svg>
