<svg width="56" height="56" viewBox="0 0 56 56" fill="none" xmlns="http://www.w3.org/2000/svg">
<rect width="56" height="56" rx="8" fill="#009DFB"/>
<path d="M18.001 19.5C18.001 18.3065 18.4751 17.1619 19.319 16.318C20.1629 15.4741 21.3075 15 22.501 15H37.501C38.6945 15 39.8391 15.4741 40.683 16.318C41.5269 17.1619 42.001 18.3065 42.001 19.5V29.5C42.001 30.6935 41.5269 31.8381 40.683 32.682C39.8391 33.5259 38.6945 34 37.501 34H31.192C30.592 32.684 29.316 31.83 28 31.578V30C28 29.2044 28.3161 28.4413 28.8787 27.8787C29.4413 27.3161 30.2043 27 31 27H36C36.7956 27 37.5587 27.3161 38.1213 27.8787C38.6839 28.4413 39 29.2044 39 30V31.5C39.3109 31.2675 39.5633 30.9656 39.737 30.6184C39.9108 30.2712 40.0012 29.8883 40.001 29.5V19.5C40.001 18.837 39.7376 18.2011 39.2688 17.7322C38.7999 17.2634 38.164 17 37.501 17H22.501C21.8379 17 21.2021 17.2634 20.7332 17.7322C20.2644 18.2011 20.001 18.837 20.001 19.5V19.814C19.2772 20.0479 18.6002 20.4074 18.001 20.876V19.5ZM27.191 33C27.6111 33.0011 28.0264 33.0907 28.4096 33.263C28.7928 33.4353 29.1354 33.6864 29.415 34H29.414C29.6378 34.2548 29.8085 34.5517 29.9162 34.8733C30.0239 35.1949 30.0663 35.5348 30.041 35.873C29.906 37.947 29.123 39.553 27.638 40.601C26.205 41.612 24.26 42 21.999 42C19.751 42 17.843 41.616 16.433 40.614C14.975 39.577 14.205 37.995 14.016 35.964C13.853 34.218 15.35 33 16.872 33H27.19H27.191ZM33.5 26C34.4282 26 35.3185 25.6313 35.9749 24.9749C36.6312 24.3185 37 23.4283 37 22.5C37 21.5717 36.6312 20.6815 35.9749 20.0251C35.3185 19.3687 34.4282 19 33.5 19C32.5717 19 31.6815 19.3687 31.0251 20.0251C30.3687 20.6815 30 21.5717 30 22.5C30 23.4283 30.3687 24.3185 31.0251 24.9749C31.6815 25.6313 32.5717 26 33.5 26ZM27 26C27 27.3261 26.4732 28.5979 25.5355 29.5355C24.5978 30.4732 23.3261 31 22 31C20.6739 31 19.4021 30.4732 18.4645 29.5355C17.5268 28.5979 17 27.3261 17 26C17 24.6739 17.5268 23.4021 18.4645 22.4645C19.4021 21.5268 20.6739 21 22 21C23.3261 21 24.5978 21.5268 25.5355 22.4645C26.4732 23.4021 27 24.6739 27 26Z" fill="white"/>
</svg>
