<svg width="56" height="56" viewBox="0 0 56 56" fill="none" xmlns="http://www.w3.org/2000/svg">
<rect width="56" height="56" rx="8" fill="#E0F3FF"/>
<path d="M32.555 25.1675L26.555 21.1675C26.4044 21.067 26.2293 21.0093 26.0484 21.0005C25.8675 20.9918 25.6877 21.0323 25.528 21.1177C25.3684 21.2032 25.2349 21.3304 25.1419 21.4858C25.0489 21.6412 24.9999 21.8189 25 22V30C24.9999 30.1811 25.0489 30.3588 25.1419 30.5142C25.2349 30.6696 25.3684 30.7968 25.528 30.8823C25.6877 30.9677 25.8675 31.0082 26.0484 30.9995C26.2293 30.9907 26.4044 30.933 26.555 30.8325L32.555 26.8325C32.6922 26.7412 32.8047 26.6175 32.8825 26.4722C32.9603 26.327 33.001 26.1648 33.001 26C33.001 25.8352 32.9603 25.673 32.8825 25.5278C32.8047 25.3825 32.6922 25.2588 32.555 25.1675ZM27 28.1313V23.875L30.1975 26L27 28.1313ZM39 17H17C16.4696 17 15.9609 17.2107 15.5858 17.5858C15.2107 17.9609 15 18.4696 15 19V33C15 33.5304 15.2107 34.0391 15.5858 34.4142C15.9609 34.7893 16.4696 35 17 35H39C39.5304 35 40.0391 34.7893 40.4142 34.4142C40.7893 34.0391 41 33.5304 41 33V19C41 18.4696 40.7893 17.9609 40.4142 17.5858C40.0391 17.2107 39.5304 17 39 17ZM39 33H17V19H39V33ZM41 38C41 38.2652 40.8946 38.5196 40.7071 38.7071C40.5196 38.8946 40.2652 39 40 39H16C15.7348 39 15.4804 38.8946 15.2929 38.7071C15.1054 38.5196 15 38.2652 15 38C15 37.7348 15.1054 37.4804 15.2929 37.2929C15.4804 37.1054 15.7348 37 16 37H40C40.2652 37 40.5196 37.1054 40.7071 37.2929C40.8946 37.4804 41 37.7348 41 38Z" fill="#009DFB"/>
</svg>
