<svg width="42" height="42" viewBox="0 0 42 42" fill="none" xmlns="http://www.w3.org/2000/svg">
<rect x="1" y="1" width="40" height="40" rx="6" fill="#009DFB" fill-opacity="0.05"/>
<path d="M23.25 18V16.5H22.5C22.1022 16.5 21.7206 16.658 21.4393 16.9393C21.158 17.2206 21 17.6022 21 18V24C21 24.3978 21.158 24.7794 21.4393 25.0607C21.7206 25.342 22.1022 25.5 22.5 25.5H23.25V24C23.25 23.6022 23.408 23.2206 23.6893 22.9393C23.9706 22.658 24.3522 22.5 24.75 22.5H29.25C29.6478 22.5 30.0294 22.658 30.3107 22.9393C30.592 23.2206 30.75 23.6022 30.75 24V28.5C30.75 28.8978 30.592 29.2794 30.3107 29.5607C30.0294 29.842 29.6478 30 29.25 30H24.75C24.3522 30 23.9706 29.842 23.6893 29.5607C23.408 29.2794 23.25 28.8978 23.25 28.5V27H22.5C21.7044 27 20.9413 26.6839 20.3787 26.1213C19.8161 25.5587 19.5 24.7956 19.5 24V21.75H16.5V22.5C16.5 22.8978 16.342 23.2794 16.0607 23.5607C15.7794 23.842 15.3978 24 15 24H12C11.6022 24 11.2206 23.842 10.9393 23.5607C10.658 23.2794 10.5 22.8978 10.5 22.5V19.5C10.5 19.1022 10.658 18.7206 10.9393 18.4393C11.2206 18.158 11.6022 18 12 18H15C15.3978 18 15.7794 18.158 16.0607 18.4393C16.342 18.7206 16.5 19.1022 16.5 19.5V20.25H19.5V18C19.5 17.2044 19.8161 16.4413 20.3787 15.8787C20.9413 15.3161 21.7044 15 22.5 15H23.25V13.5C23.25 13.1022 23.408 12.7206 23.6893 12.4393C23.9706 12.158 24.3522 12 24.75 12H29.25C29.6478 12 30.0294 12.158 30.3107 12.4393C30.592 12.7206 30.75 13.1022 30.75 13.5V18C30.75 18.3978 30.592 18.7794 30.3107 19.0607C30.0294 19.342 29.6478 19.5 29.25 19.5H24.75C24.3522 19.5 23.9706 19.342 23.6893 19.0607C23.408 18.7794 23.25 18.3978 23.25 18Z" fill="#009DFB"/>
<rect x="1" y="1" width="40" height="40" rx="6" stroke="#009DFB" stroke-width="1.66"/>
</svg>
