<svg width="56" height="56" viewBox="0 0 56 56" fill="none" xmlns="http://www.w3.org/2000/svg">
<rect width="56" height="56" rx="8" fill="#E0F3FF"/>
<path d="M32 22.6667H34.6667M32 28H34.6667M34.6667 33.3334H21.3333M21.3333 22.6667V28H26.6667V22.6667H21.3333ZM18.6667 38.6667H37.3333C38.0406 38.6667 38.7189 38.3858 39.219 37.8857C39.719 37.3856 40 36.7073 40 36V20C40 19.2928 39.719 18.6145 39.219 18.1144C38.7189 17.6143 38.0406 17.3334 37.3333 17.3334H18.6667C17.9594 17.3334 17.2811 17.6143 16.781 18.1144C16.281 18.6145 16 19.2928 16 20V36C16 36.7073 16.281 37.3856 16.781 37.8857C17.2811 38.3858 17.9594 38.6667 18.6667 38.6667Z" stroke="#009DFB" stroke-width="2.5" stroke-linecap="round" stroke-linejoin="round"/>
</svg>
