<svg width="40" height="40" viewBox="0 0 40 40" fill="none" xmlns="http://www.w3.org/2000/svg">
<rect width="40" height="40" rx="6" fill="#FF323D" fill-opacity="0.1"/>
<path d="M20.325 9.3335C21.0372 9.33742 22.8189 9.35464 24.712 9.43047L25.3832 9.45974C27.2892 9.54998 29.1936 9.70414 30.1381 9.9675C31.398 10.3214 32.3882 11.3542 32.7229 12.6633C33.2558 14.742 33.3225 18.7994 33.3308 19.7812L33.332 19.9847V19.999C33.332 19.999 33.332 20.0039 33.332 20.0134L33.3308 20.2168C33.3225 21.1987 33.2558 25.256 32.7229 27.3348C32.3836 28.6487 31.3933 29.6815 30.1381 30.0306C29.1936 30.2939 27.2892 30.448 25.3832 30.5383L24.712 30.5675C22.8189 30.6434 21.0372 30.6606 20.325 30.6646L20.0125 30.6656H19.9986C19.9986 30.6656 19.994 30.6656 19.9848 30.6656L19.6725 30.6646C18.1653 30.6563 11.8635 30.5882 9.85918 30.0306C8.5993 29.6766 7.60906 28.6439 7.27433 27.3348C6.74144 25.256 6.67482 21.1987 6.6665 20.2168V19.7812C6.67482 18.7994 6.74144 14.742 7.27433 12.6633C7.6137 11.3493 8.60394 10.3166 9.85918 9.9675C11.8635 9.4098 18.1653 9.34179 19.6725 9.3335H20.325ZM17.332 15.3323V24.6656L25.332 19.999L17.332 15.3323Z" fill="#FF323D"/>
</svg>
